<svg width="56" height="34" viewBox="0 0 56 34" fill="none" xmlns="http://www.w3.org/2000/svg">
<path d="M45.5006 31.8859L45.502 31.8845C46.1098 31.2753 46.4378 30.3495 46.4378 29.6264V7.06317C46.4378 6.46672 46.1982 5.89836 45.7825 5.48068C45.3623 5.0585 44.7897 4.82325 44.1979 4.82325H39.0497V3.44131C39.0497 2.20491 38.0489 1.20138 36.8098 1.20138H27.6573C26.4225 1.20138 25.4174 2.20374 25.4174 3.44131V5.44253H15.0746C13.8398 5.44253 12.8347 6.44488 12.8347 7.68245V10.638H11.9306C10.6914 10.638 9.69064 11.6416 9.69064 12.878V27.4016C9.69064 30.3922 12.1156 32.8206 15.1064 32.8206H17.4907C18.133 32.8206 18.7481 32.7088 19.3193 32.5035C19.8915 32.7086 20.5063 32.8206 21.1466 32.8206H23.5309C23.7604 32.8206 23.9885 32.8063 24.2117 32.7781C24.351 32.8057 24.4956 32.8206 24.6467 32.8206H33.3891C33.7666 32.8206 34.1224 32.7269 34.4344 32.562C34.9567 32.7299 35.5124 32.8206 36.0881 32.8206H38.4724C38.9388 32.8206 39.3938 32.7612 39.8273 32.6494C40.1562 32.7616 40.5044 32.8206 40.8599 32.8206H43.2441C44.0926 32.8206 44.9017 32.483 45.5006 31.8859Z" fill="black" stroke="white" stroke-width="1.61872"/>
<path fill-rule="evenodd" clip-rule="evenodd" d="M40.8511 28.6716C40.5981 28.6716 40.3558 28.7722 40.1765 28.951C39.9979 29.1299 39.8974 29.3724 39.8974 29.6253V29.626C39.8974 29.879 39.9979 30.1216 40.1765 30.3005C40.3558 30.4793 40.5981 30.5798 40.8511 30.5798C41.1042 30.5798 41.347 30.4793 41.5257 30.3005C41.7044 30.1216 41.8048 29.8791 41.8048 29.6262V29.6252C41.8048 29.3724 41.7044 29.1298 41.5257 28.951C41.347 28.7722 41.1042 28.6716 40.8511 28.6716ZM21.1398 24.2217C19.3863 24.2217 17.9621 25.6461 17.9621 27.4007C17.9621 29.1553 19.3863 30.5798 21.1398 30.5798C22.894 30.5798 24.3182 29.1553 24.3182 27.4007C24.3182 25.6461 22.894 24.2217 21.1398 24.2217ZM26.2275 29.6257H26.8634V30.5798H24.638V29.6257H25.2738V24.2217H26.2275V25.1309C26.801 24.5686 27.5863 24.2217 28.4516 24.2217V25.1757C27.2245 25.1757 26.2275 26.1727 26.2275 27.4007V29.6257ZM30.3603 25.1309C30.9338 24.5686 31.719 24.2217 32.5843 24.2217V25.1757C31.3572 25.1757 30.3603 26.1727 30.3603 27.4007V29.6257H30.9961V30.5798H28.7707V29.6257H29.4066V24.2217H30.3603V25.1309ZM17.6416 29.3084C17.0617 30.0802 16.1386 30.5798 15.0996 30.5798C13.3461 30.5798 11.9219 29.1553 11.9219 27.4007C11.9219 25.6461 13.3461 24.2217 15.0996 24.2217C16.1386 24.2217 17.0617 24.7213 17.6416 25.4931L16.8786 26.0656C16.473 25.5254 15.827 25.1757 15.0996 25.1757C13.8725 25.1757 12.8756 26.1727 12.8756 27.4007C12.8756 28.6288 13.8725 29.6257 15.0996 29.6257C15.827 29.6257 16.473 29.2761 16.8786 28.7359L17.6416 29.3084ZM33.9087 27.8778C34.1268 28.8768 35.0176 29.6257 36.0813 29.6257C36.8086 29.6257 37.4547 29.2759 37.8609 28.7353L38.6232 29.3078C38.0434 30.08 37.1202 30.5798 36.0813 30.5798C34.3278 30.5798 32.9035 29.1553 32.9035 27.4007C32.9035 25.6461 34.3278 24.2217 36.0813 24.2217C37.8355 24.2217 39.2597 25.6461 39.2597 27.4007H39.2584L39.2597 27.4019V27.8778H33.9087ZM21.1398 25.1757C22.3676 25.1757 23.3645 26.1727 23.3645 27.4007C23.3645 28.6288 22.3676 29.6257 21.1398 29.6257C19.9127 29.6257 18.9157 28.6288 18.9157 27.4007C18.9157 26.1727 19.9127 25.1757 21.1398 25.1757ZM38.2545 26.9237H33.9087C34.1268 25.9246 35.0176 25.1757 36.0813 25.1757C37.1456 25.1757 38.0358 25.9246 38.2545 26.9237Z" fill="white"/>
<path fill-rule="evenodd" clip-rule="evenodd" d="M12.592 22.7841V19.7509H17.5351V22.7841H18.2091V14.4429H15.0636V12.8701H11.918V22.7841H12.592ZM15.7369 17.252H12.5912V18.1508H15.7369V17.252ZM13.0407 17.4763H12.8157V17.9257H13.0407V17.4763ZM13.94 13.9937H13.0411V14.8925H13.94V13.9937ZM13.4906 14.2181H13.2659V14.6675H13.4906V14.2181ZM15.9613 17.252H17.534V18.1508H15.9613V17.252ZM16.1858 17.4763H16.4105V17.9257H16.1858V17.4763Z" fill="white"/>
<path fill-rule="evenodd" clip-rule="evenodd" d="M27.1741 12.8779H20.8828V16.0234H27.1741V12.8779ZM22.9056 13.8892H22.0069V14.788H22.9056V13.8892ZM22.4561 14.1136H22.2314V14.5629H22.4561V14.1136ZM25.1521 13.8892H26.0509V14.3386H25.1521V13.8892Z" fill="white"/>
<path d="M41.8059 7.05762H41.4688V10.6291H41.8059V7.05762Z" fill="white"/>
<path d="M32.7082 7.05762H32.3711V10.6291H32.7082V7.05762Z" fill="white"/>
<path d="M35.7316 7.05762H35.3945V10.6291H35.7316V7.05762Z" fill="white"/>
<path d="M38.7668 7.05762H38.4297V10.6291H38.7668V7.05762Z" fill="white"/>
<path d="M24.5041 7.87012H24.0547V11.0877H24.5041V7.87012Z" fill="white"/>
<path fill-rule="evenodd" clip-rule="evenodd" d="M19.788 8.13213V10.8283H24.5057V12.4012H15.0703V7.68262H24.5057V8.13213H19.788ZM18.2144 9.03116H16.6439V9.92986H18.2144V9.03116ZM17.0922 9.25531V9.70482H16.8665V9.25531H17.0922Z" fill="white"/>
<path fill-rule="evenodd" clip-rule="evenodd" d="M31.8854 12.8771H27.6445V3.44043H34.4127V6.58544H32.3623C32.0984 6.58544 31.8854 6.79875 31.8854 7.06198V12.8771ZM29.8858 10.8549H28.9353V11.5285H28.7699V11.7529H28.9353V11.7536H29.8858V11.7529H30.0511V11.5285H29.8858V10.8549ZM33.1221 4.56358H32.1747V5.23753H32.0094V5.46229H33.2905V5.23753H33.1221V4.56358ZM28.9353 4.56358V5.23753H28.7699V5.46229H30.0511V5.23753H29.8858V4.56358H28.9353ZM29.8858 7.70923H28.9353V8.38317H28.7699V8.60795H30.0511V8.38317H29.8858V7.70923Z" fill="white"/>
<path fill-rule="evenodd" clip-rule="evenodd" d="M38.2071 16.0174V14.3322C38.2071 14.1532 38.1372 13.9818 38.01 13.8556C37.8828 13.7291 37.7143 13.6582 37.5331 13.6582C37.3551 13.6582 37.1834 13.7291 37.0563 13.8556C36.9323 13.9818 36.8592 14.1532 36.8592 14.3322V16.0174H32.3672V10.203H41.8026V22.7856H38.2103V16.0174H38.2071ZM34.052 11.1017C33.9026 11.1017 33.7596 11.1608 33.6547 11.2663C33.5498 11.3716 33.4894 11.5143 33.4894 11.6634H34.1633V11.1017H34.052ZM34.3891 11.8881V12.4496H35.063V11.8881H34.3891ZM35.9627 11.6634C35.9627 11.5143 35.9023 11.3716 35.7974 11.2663C35.6925 11.1608 35.5494 11.1017 35.4 11.1017H35.2887V11.6634H35.9627ZM34.1633 11.8881H33.4894C33.4894 12.0369 33.5498 12.18 33.6547 12.2852C33.7596 12.3904 33.9026 12.4496 34.052 12.4496H34.1633V11.8881ZM35.063 11.1017H34.3891V11.6634H35.063V11.1017ZM40.6804 11.8881H40.0064V12.4496H40.1177C40.2671 12.4496 40.4102 12.3904 40.5151 12.2852C40.62 12.18 40.6804 12.0369 40.6804 11.8881ZM35.2887 11.8881V12.4496H35.4C35.5494 12.4496 35.6925 12.3904 35.7974 12.2852C35.9023 12.18 35.9627 12.0369 35.9627 11.8881H35.2887ZM40.0064 11.1017V11.6634H40.6804C40.6804 11.5143 40.62 11.3716 40.5151 11.2663C40.4102 11.1608 40.2671 11.1017 40.1177 11.1017H40.0064ZM39.6694 11.1017C39.52 11.1017 39.377 11.1608 39.272 11.2663C39.1671 11.3716 39.1067 11.5143 39.1067 11.6634H39.7807V11.1017H39.6694ZM39.7807 11.8881H39.1067C39.1067 12.0369 39.1671 12.18 39.272 12.2852C39.377 12.3904 39.52 12.4496 39.6694 12.4496H39.7807V11.8881ZM41.8058 7.05762V7.50682H32.3672V7.05762H41.8058ZM37.4219 14.809C37.4536 14.809 37.4823 14.8208 37.5013 14.8421C37.5236 14.8631 37.5363 14.8917 37.5363 14.9216C37.5363 14.9512 37.5236 14.9798 37.5013 15.0011C37.4823 15.0221 37.4536 15.0338 37.4219 15.0338H37.1993C37.1675 15.0338 37.1389 15.0221 37.1198 15.0011C37.0976 14.9798 37.0849 14.9512 37.0849 14.9216C37.0849 14.8917 37.0976 14.8631 37.1198 14.8421C37.1389 14.8208 37.1675 14.809 37.1993 14.809H37.4219Z" fill="white"/>
<path fill-rule="evenodd" clip-rule="evenodd" d="M27.6484 13.3545H28.0966V13.804H28.5481V14.2536H28.9963V14.7028H29.4446V15.152H29.896V15.6012H30.3442V16.051H30.7956V16.5002H33.9397V22.7915H31.4124V21.0507C31.4124 20.7092 31.1358 20.4326 30.7956 20.4326C30.4523 20.4326 30.1757 20.7092 30.1757 21.0507V22.7915H27.6484V13.3545ZM28.885 18.1857V18.8596H28.6593V19.0844H28.885V19.0847H29.7815V19.0844H30.0073V18.8596H29.7815V18.1857C29.7815 18.0668 29.737 17.9523 29.6512 17.8681C29.5686 17.7839 29.4541 17.7365 29.3333 17.7365C29.2157 17.7365 29.1012 17.7839 29.0154 17.8681C28.9327 17.9523 28.885 18.0668 28.885 18.1857ZM29.1076 18.1853C29.1076 18.0614 29.2093 17.9609 29.3333 17.9609V18.6349H29.1076V18.1853ZM32.9288 18.8596H32.7031V18.186C32.7031 18.0668 32.6554 17.9523 32.5728 17.8681C32.4869 17.7839 32.3724 17.7365 32.2548 17.7365C32.0069 17.7365 31.8034 17.9377 31.8034 18.186V18.8596H31.5809V19.0844H31.8034V19.0847H32.7031V19.0844H32.9288V18.8596ZM32.2548 17.9609V18.6349H32.0291V18.1853C32.0291 18.0614 32.1308 17.9609 32.2548 17.9609ZM31.0532 21.5742C31.1136 21.5742 31.1644 21.6244 31.1644 21.6868C31.1644 21.7487 31.1136 21.799 31.0532 21.799C30.9896 21.799 30.9387 21.7487 30.9387 21.6868C30.9387 21.6244 30.9896 21.5742 31.0532 21.5742Z" fill="white"/>
<path fill-rule="evenodd" clip-rule="evenodd" d="M24.9788 16.4951V22.7864H22.3975V20.4273H21.1608V22.7864H18.6875V16.4951H24.9788ZM19.5872 17.7311V18.9668H20.8238V17.7311H19.5872ZM20.3756 17.9552H20.5981V18.7417H20.3756V17.9552ZM23.9679 17.7311H22.7344V18.9668H23.9679V17.7311ZM23.7454 17.9552V18.7417H23.5196V17.9552H23.7454ZM21.8952 21.4572V21.682H21.4469V21.4572H21.8952Z" fill="white"/>
</svg>
